# xmcd CD database file
#
# Track frame offsets:
#	150
#	20349
#	44852
#	65143
#	94382
#	122790
#	140629
#	171821
#	207170
#	222871
#	235832
#	262692
#	276137
#	289014
#	304526
#
# Disc length: 4253 seconds
#
# Revision: 0
# Processed by: cddbd v1.5.2PL0 Copyright (c) Steve Scherf et al.
# Submitted via: CDex 1.70beta2
#
DISCID=e4109b0f
DTITLE=Tony Scott Quartet -  Complete Brunswick Sessions
DYEAR=1953
DGENRE=Jazz
TTITLE0=Katz' Meow
TTITLE1=After After Hours
TTITLE2=I Never Knew
TTITLE3=Away We Go
TTITLE4=Cupcake
TTITLE5=Bob's Blob
TTITLE6=Milt to the Hilt
TTITLE7=Homecoming
TTITLE8=I Cover the Waterfront
TTITLE9=I't's You or No One
TTITLE10=Blues for Ava
TTITLE11=Yesterdays
TTITLE12=Goodbye
TTITLE13=Swootie Patootie
TTITLE14=Sweet Lorraine
EXTD=YEAR: 1953
EXTT0=
EXTT1=
EXTT2=
EXTT3=
EXTT4=
EXTT5=
EXTT6=
EXTT7=
EXTT8=
EXTT9=
EXTT10=
EXTT11=
EXTT12=
EXTT13=
EXTT14=
PLAYORDER=
